<svg id="visual" viewBox="0 0 900 140" width="900" height="140" xmlns="http://www.w3.org/2000/svg" xmlns:xlink="http://www.w3.org/1999/xlink" version="1.1"><path d="M0 38L10.7 38C21.3 38 42.7 38 64.2 47C85.7 56 107.3 74 128.8 88.5C150.3 103 171.7 114 193 118C214.3 122 235.7 119 257 112C278.3 105 299.7 94 321.2 88.7C342.7 83.3 364.3 83.7 385.8 84.5C407.3 85.3 428.7 86.7 450 75.7C471.3 64.7 492.7 41.3 514.2 48.3C535.7 55.3 557.3 92.7 578.8 95.3C600.3 98 621.7 66 643 67C664.3 68 685.7 102 707 100.2C728.3 98.3 749.7 60.7 771.2 40.2C792.7 19.7 814.3 16.3 835.8 16C857.3 15.7 878.7 18.3 889.3 19.7L900 21L900 141L889.3 141C878.7 141 857.3 141 835.8 141C814.3 141 792.7 141 771.2 141C749.7 141 728.3 141 707 141C685.7 141 664.3 141 643 141C621.7 141 600.3 141 578.8 141C557.3 141 535.7 141 514.2 141C492.7 141 471.3 141 450 141C428.7 141 407.3 141 385.8 141C364.3 141 342.7 141 321.2 141C299.7 141 278.3 141 257 141C235.7 141 214.3 141 193 141C171.7 141 150.3 141 128.8 141C107.3 141 85.7 141 64.2 141C42.7 141 21.3 141 10.7 141L0 141Z" fill="#3F1D04" stroke-linecap="round" stroke-linejoin="miter"></path></svg>