<svg id="visual" viewBox="0 0 900 100" width="900" height="100" xmlns="http://www.w3.org/2000/svg" xmlns:xlink="http://www.w3.org/1999/xlink" version="1.1"><path d="M0 57L10 52.8C20 48.7 40 40.3 60 40.8C80 41.3 100 50.7 120 58C140 65.3 160 70.7 180 70C200 69.3 220 62.7 240 61.8C260 61 280 66 300 60.3C320 54.7 340 38.3 360 37.7C380 37 400 52 420 56.2C440 60.3 460 53.7 480 48.2C500 42.7 520 38.3 540 39.8C560 41.3 580 48.7 600 55.2C620 61.7 640 67.3 660 67C680 66.7 700 60.3 720 55.7C740 51 760 48 780 46C800 44 820 43 840 46.5C860 50 880 58 890 62L900 66L900 101L890 101C880 101 860 101 840 101C820 101 800 101 780 101C760 101 740 101 720 101C700 101 680 101 660 101C640 101 620 101 600 101C580 101 560 101 540 101C520 101 500 101 480 101C460 101 440 101 420 101C400 101 380 101 360 101C340 101 320 101 300 101C280 101 260 101 240 101C220 101 200 101 180 101C160 101 140 101 120 101C100 101 80 101 60 101C40 101 20 101 10 101L0 101Z" fill="#070D19" stroke-linecap="round" stroke-linejoin="miter"></path></svg>